<?xml version="1.0" encoding="utf-8"?>
<!-- Generator: Adobe Illustrator 27.0.0, SVG Export Plug-In . SVG Version: 6.00 Build 0)  -->
<svg version="1.1" id="Calque_1" xmlns="http://www.w3.org/2000/svg" xmlns:xlink="http://www.w3.org/1999/xlink" x="0px" y="0px"
	 viewBox="0 0 425.2 283.46" style="enable-background:new 0 0 425.2 283.46;" xml:space="preserve">
<style type="text/css">
	.st0{fill:#1E1E1C;}
	.st1{fill:none;stroke:#1E1E1C;stroke-width:11.0973;stroke-linecap:round;stroke-miterlimit:10;}
	.st2{fill:none;stroke:#1E1E1C;stroke-width:11.0973;stroke-linecap:round;stroke-linejoin:round;stroke-miterlimit:10;}
</style>
<g>
	<path class="st0" d="M97.35,177.5c-13.4-32,6.6-69,41-73.9c27.9-4.2,54.6,15.6,57.5,43.8c2.3,18.2-7.1,37-22.8,46.1
		c7.2-5.2,12.9-12.3,16-20.3c4.8-12,4.2-25.7-1.7-37c-9.6-18.7-31.6-27.9-51.4-21c-14.5,4.9-25.5,18.6-26.8,33.8
		c-0.8,7.4,0.8,14.8,4,21.2c2.2,4.3,0.5,9.6-3.8,11.8C104.95,184.4,99.15,182.3,97.35,177.5L97.35,177.5z"/>
</g>
<path class="st0" d="M119.45,187.2l-3.5,0.4c-3.1,0.4-6-1.9-6.3-5l-3-25.4c-0.4-3.1,1.9-6,5-6.3l3.5-0.4c3.1-0.4,6,1.9,6.3,5l3,25.4
	C124.85,184,122.65,186.8,119.45,187.2z"/>
<g>
	<line class="st1" x1="275.65" y1="150.6" x2="332.05" y2="150.6"/>
	<path class="st1" d="M289.25,193.5c-23.6,0-42.8-19.2-42.8-42.8s19.2-42.8,42.8-42.8c23.6,0,42.8,19.2,42.8,42.8"/>
</g>
<polyline class="st2" points="171.25,65.7 218.75,125.1 256.65,65.7 "/>
<line class="st2" x1="218.75" y1="125.1" x2="218.75" y2="210.2"/>
</svg>
